<?xml version="1.0" encoding="utf-8"?>
<!-- Generator: Adobe Illustrator 23.0.4, SVG Export Plug-In . SVG Version: 6.00 Build 0)  -->
<svg version="1.1" id="Camada_1" xmlns="http://www.w3.org/2000/svg" xmlns:xlink="http://www.w3.org/1999/xlink" x="0px" y="0px"
	 viewBox="0 0 1366 768" style="enable-background:new 0 0 1366 768;" xml:space="preserve">
<style type="text/css">
	.st0{fill:#5C3566;}
	.st1{fill:#694471;}
	.st2{fill:#AD7FA8;}
</style>
<g>
	<path class="st0" d="M559.04,417.03c-0.16,3.46-1.09,6.52-2.8,9.18c-1.71,2.66-4.11,4.71-7.19,6.17
		c-3.09,1.46-6.61,2.19-10.58,2.19c-6.54,0-11.69-2.13-15.45-6.39c-3.76-4.26-5.64-10.28-5.64-18.05v-2.46
		c0-4.88,0.85-9.14,2.55-12.8c1.7-3.66,4.14-6.48,7.33-8.48c3.19-1.99,6.88-2.99,11.07-2.99c6.04,0,10.89,1.59,14.56,4.77
		c3.67,3.18,5.75,7.56,6.25,13.14h-11.96c-0.09-3.03-0.85-5.21-2.29-6.53c-1.44-1.32-3.62-1.98-6.56-1.98
		c-2.99,0-5.17,1.12-6.56,3.35c-1.39,2.23-2.12,5.8-2.19,10.7v3.52c0,5.31,0.67,9.1,2,11.38c1.33,2.28,3.63,3.42,6.89,3.42
		c2.76,0,4.86-0.65,6.32-1.95c1.46-1.3,2.23-3.36,2.32-6.19H559.04z"/>
	<path class="st0" d="M611.13,410.02c0,4.85-0.9,9.15-2.7,12.89c-1.8,3.74-4.36,6.61-7.67,8.63c-3.32,2.02-7.09,3.03-11.33,3.03
		s-8-0.97-11.28-2.92c-3.28-1.95-5.84-4.73-7.67-8.36c-1.83-3.62-2.8-7.78-2.89-12.48v-2.8c0-4.88,0.89-9.18,2.68-12.9
		c1.79-3.72,4.35-6.6,7.69-8.63c3.34-2.03,7.14-3.04,11.4-3.04c4.22,0,7.98,1,11.28,3.01c3.3,2.01,5.87,4.86,7.71,8.56
		c1.83,3.7,2.76,7.95,2.79,12.73V410.02z M598.92,407.94c0-4.94-0.83-8.7-2.48-11.26c-1.65-2.56-4.02-3.84-7.09-3.84
		c-6.02,0-9.19,4.51-9.54,13.54l-0.03,3.66c0,4.88,0.81,8.62,2.43,11.25c1.62,2.62,4.02,3.93,7.21,3.93c3.03,0,5.37-1.29,7.01-3.86
		c1.64-2.57,2.47-6.28,2.5-11.11V407.94z"/>
	<path class="st0" d="M663.15,433.88h-11.93l-17.64-30.97v30.97h-12v-49.77h12l17.6,30.97v-30.97h11.96V433.88z"/>
	<path class="st0" d="M713.08,393.38h-14.94v40.5h-12v-40.5h-14.66v-9.26h41.6V393.38z"/>
	<path class="st0" d="M753.27,412.76H734.4v11.89h22.29v9.23h-34.28v-49.77h34.35v9.26H734.4v10.49h18.87V412.76z"/>
	<path class="st0" d="M807.41,433.88h-11.93l-17.64-30.97v30.97h-12v-49.77h12l17.6,30.97v-30.97h11.96V433.88z"/>
	<path class="st0" d="M857.34,393.38h-14.94v40.5h-12v-40.5h-14.66v-9.26h41.6V393.38z"/>
</g>
<g>
	<g id="layer101">
		<path class="st1" d="M1017.96,396.5c-2-2.2-3.6-4.4-3.6-4.8c0-0.4,3.2-3.9,7-7.7l7-6.9l-7-7.1c-3.8-3.9-7-7.4-7-7.8
			c0-1.5,7.3-8.7,8.9-8.7c2,0,24.1,22,24.1,24c0,2.4-21.2,23-23.6,23C1022.46,400.5,1020.06,398.8,1017.96,396.5z"/>
		<path class="st1" d="M1041.06,396.7c-2-2.1-3.7-4.2-3.7-4.7s3-4,6.7-7.7l6.7-6.7l-6.7-7c-3.7-3.8-6.7-7.4-6.7-8
			c0-1.8,7.1-9.1,8.9-9.1c2,0,24.1,22,24.1,24c0,2.3-21.2,23-23.6,23C1045.66,400.5,1043.06,398.8,1041.06,396.7z"/>
		<path class="st1" d="M1063.06,396.7c-2-2.1-3.7-4.2-3.7-4.7s3-4,6.7-7.7l6.7-6.7l-6.7-7c-3.7-3.8-6.7-7.4-6.7-8
			c0-1.8,7.1-9.1,8.9-9.1c2,0,24.1,22,24.1,24c0,2.3-21.2,23-23.6,23C1067.66,400.5,1065.06,398.8,1063.06,396.7z"/>
		<path class="st1" d="M282.36,300.4v-48.1l24.8,0.4c27.5,0.5,31.6,1.2,39.4,7.1c11.2,8.5,14.9,30.4,7.7,45.4
			c-5.2,10.7-18.6,16.2-39.6,16.3h-10.3V335v13.5h-11h-11V300.4z M327.76,300.5c5.2-2.7,7.1-6.3,7.1-14c0-6.2-0.3-7.2-2.8-9.8
			c-3.7-3.9-8.6-5.2-19.1-5.2h-8.6v15.6v15.6l10.3-0.4C320.86,302.1,325.96,301.3,327.76,300.5z"/>
		<path class="st1" d="M360.36,300.5v-48h23.7c26.2,0,33.5,0.9,40.8,4.8c10.1,5.5,14.3,15.2,13.2,30.6c-0.7,9.8-4.3,17.5-10.4,22.2
			c-2.3,1.8-4.7,3.4-5.4,3.6c-0.8,0.3,3.2,6.7,10,16.3c6.2,8.7,11.5,16.5,11.8,17.2c0.4,1-2.2,1.3-12.9,1.3h-13.4l-10.8-15.5
			l-10.7-15.5h-7h-6.9V333v15.5h-11h-11V300.5z M409.96,296.2c3.6-1.9,5.5-5.7,5.6-11.6c0.1-10.5-4.1-13.1-21.7-13.1h-11.5v13.6
			v13.6l12.3-0.4C403.36,298,407.76,297.4,409.96,296.2z"/>
		<path class="st1" d="M472.26,346.1c-22.5-7.9-35.6-30.2-32-54.3c1.5-9.9,5.4-18.3,11.9-25.5c10.4-11.3,21.5-16,37.7-16
			c7.6,0,11.6,0.5,16.4,2.2c15.6,5.2,27.2,17.2,31.7,32.5c2.4,8.3,2.2,22.1-0.4,30.2c-5,15.6-18.9,28.7-34.3,32.2
			c-2.4,0.6-8.9,1.1-14.4,1.1C480.96,348.5,477.46,348,472.26,346.1z M498.66,327.9c5.9-2,13.1-8.9,16-15.2c3.1-6.7,3.1-19.7,0-26.4
			c-8-17.4-29.5-22.2-42.6-9.4c-6.8,6.6-9.2,12.5-9.2,22.6c0,10.4,2.2,15.8,8.9,22.4C479.16,329.1,488.86,331.2,498.66,327.9z"/>
		<path class="st1" d="M661.36,347.4c-11.5-1.2-21-6.1-29.8-15.1c-5.2-5.2-10.8-16.1-11.8-22.6c-0.9-6.5-1.2-6.7-3.7-3.1
			c-6.4,9.4-15.7,13-34.9,13.7l-13.8,0.5v13.3v13.4h-11h-11v-48v-48h22.1c25.3,0,33,1.2,40.7,6.3c5.8,3.9,10.9,11.3,11.8,17.2
			c0.3,2.5,0.9,4.5,1.3,4.5c0.4,0,1.7-2.1,2.9-4.6c2.8-5.7,10.9-14.4,17.1-18.3c2.5-1.6,7.5-3.9,11.1-5.1c5.6-1.9,8.1-2.2,18.5-1.8
			c11.2,0.4,12.5,0.7,19.5,4c18.4,8.6,28.1,24.1,28.1,44.6c0,14.8-3.5,24.2-12.5,34C695.16,344.1,679.56,349.4,661.36,347.4z
			 M677.66,326.9c5.9-2,13.1-8.9,16-15.2c3.3-7.1,3.1-19.9-0.5-26.7c-9.2-17.6-29.1-21.8-42.4-8.9c-5.7,5.6-8.6,12-9.2,20.5
			C640.06,318,658.46,333.5,677.66,326.9z M591.96,299.2c5.4-2.8,8.3-14.5,5.2-21.2c-2.3-5-7.2-6.9-19-7.4l-10.8-0.3V286v15.8
			l10.8-0.5C585.36,301,589.86,300.3,591.96,299.2z"/>
		<path class="st1" d="M746.66,347.5c-10.3-1.9-24.5-8.9-29.7-14.8c-1.8-2.1-1.8-2.2,4.4-9.7c3.5-4.1,6.7-7.5,7.1-7.5
			c0.5,0,3,1.6,5.6,3.7c15.6,11.9,34.3,12,34.3,0.3c0-5-4.1-7.5-19.3-11.9c-18.7-5.4-25.5-10.2-28.4-20c-2-7-1.4-17.1,1.5-22.7
			c2.5-5,8.1-10,14.1-12.8c3.9-1.8,6.5-2.1,17.1-2.1c9,0,14,0.5,18,1.7c6.3,2,18,8.6,18,10.2c0,1.5-10,15.6-11,15.6
			c-0.5,0-3-1.3-5.7-3c-6-3.7-16.3-6.4-21.7-5.7c-4.8,0.7-8.6,4.4-8.6,8.6c0,4.8,3.7,7,18.4,11.2c13.4,3.8,19.7,7.1,24.5,12.5
			c6.7,7.6,8,20.7,3.2,30.8c-2.9,5.9-10.4,12-17.4,14.1C764.46,348,753.36,348.7,746.66,347.5z"/>
		<path class="st1" d="M969.86,347.1c-11-2.7-20.9-10.4-25.3-19.9c-3.6-7.8-4.2-13.8-4.2-45.2v-30.5h10.9h11l0.3,31.3
			c0.3,30.1,0.4,31.3,2.5,35.4c6.7,12.5,23.3,13.8,30.7,2.5c4-6,4.5-11.1,4.6-40.9v-28.3h11h11v29.8c0,32.7-0.8,39.4-5.6,48.3
			C1008.66,344.3,988.86,351.7,969.86,347.1z"/>
		<path class="st1" d="M795.36,299.5v-48h34.5h34.5v10v10h-23.5h-23.5v9v9h21.5h21.5v9.5v9.5h-21.5h-21.5v9.5v9.5h24.5h24.5v10v10
			h-35.5h-35.5V299.5z"/>
		<path class="st1" d="M871.36,299.5v-48h33h33v10v10h-22h-22v9.5v9.5h21h21v10v10h-21h-21V329v18.5h-11h-11V299.5z"/>
		<path class="st1" d="M1030.36,299.5v-48h11h11v38v38h20h20v10v10h-31h-31V299.5z"/>
	</g>
	<g id="layer102">
		<path class="st2" d="M1017.96,396.5c-2-2.2-3.6-4.4-3.6-4.8c0-0.4,3.2-3.9,7-7.7l7-6.9l-7.1-7.2c-6-6-6.9-7.4-6.1-9
			c1.4-2.6,6.9-7.4,8.5-7.4c1.8,0,23.7,22.2,23.7,24c0,2.4-21.2,23-23.6,23C1022.46,400.5,1020.06,398.8,1017.96,396.5z"/>
		<path class="st2" d="M1041.06,396.7c-2-2.1-3.7-4.2-3.7-4.8c0-0.5,3.1-4,6.9-7.8l6.8-6.8l-6.8-6.7c-3.8-3.7-6.9-7.2-6.9-7.9
			c0-1.9,7-9.2,8.9-9.2c2,0,24.1,22,24.1,24c0,2.3-21.2,23-23.6,23C1045.66,400.5,1043.06,398.8,1041.06,396.7z"/>
		<path class="st2" d="M1063.06,396.7c-2-2.1-3.7-4.2-3.7-4.8c0-0.5,3.1-4,6.9-7.8l6.8-6.8l-6.8-6.7c-3.8-3.7-6.9-7.2-6.9-7.9
			c0-1.9,7-9.2,8.9-9.2c2,0,24.1,22,24.1,24c0,2.3-21.2,23-23.6,23C1067.66,400.5,1065.06,398.8,1063.06,396.7z"/>
		<path class="st2" d="M969.86,347.2c-11.1-2.9-20.9-10.6-25.3-20c-3.6-7.8-4.2-13.8-4.2-45.2v-30.5h10.9h11l0.3,31.3
			c0.3,29.7,0.4,31.4,2.5,35.2c3.9,7.3,8.9,10.5,16.4,10.5c8.4,0,15.7-6.5,17.8-16c0.6-2.5,1.1-17.2,1.1-32.7v-28.3h11h11v29.8
			c0,32.9-0.8,39.7-5.8,48.6c-3.6,6.4-11.3,12.7-18.9,15.6C990.56,348.2,977.06,349,969.86,347.2z"/>
		<path class="st2" d="M871.36,299.5v-48h33h33v10v10h-22h-22v9.5v9.5h21h21v10v10h-21h-21V329v18.5h-11h-11V299.5z"/>
		<path class="st2" d="M1030.36,299.5v-48h11h11v38v38h20h20v10v10h-31h-31V299.5z"/>
	</g>
</g>
</svg>
